<?xml version="1.0" standalone="no"?>
<!DOCTYPE svg PUBLIC "-//W3C//DTD SVG 20010904//EN"
 "http://www.w3.org/TR/2001/REC-SVG-20010904/DTD/svg10.dtd">
<svg version="1.0" xmlns="http://www.w3.org/2000/svg"
 width="260.000000pt" height="260.000000pt" viewBox="0 0 260.000000 260.000000"
 preserveAspectRatio="xMidYMid meet">
<metadata>
Created by potrace 1.14, written by Peter Selinger 2001-2017
</metadata>
<g transform="translate(0.000000,260.000000) scale(0.100000,-0.100000)"
fill="#000000" stroke="none">
<path d="M1282 2299 c-97 -16 -166 -72 -206 -166 -14 -34 -26 -68 -26 -75 0
-7 10 -44 22 -83 21 -63 32 -80 120 -172 54 -56 98 -110 98 -119 0 -20 -48
-74 -65 -74 -6 0 -22 11 -35 25 -13 14 -34 25 -46 25 -28 0 -121 -75 -157
-127 -40 -57 -86 -184 -97 -267 -22 -151 -88 -307 -168 -396 l-50 -55 -73 5
c-41 2 -137 4 -214 5 -136 0 -141 -1 -179 -27 -21 -14 -47 -40 -57 -57 -19
-31 -19 -32 6 -80 29 -58 107 -127 190 -168 109 -55 265 -102 369 -113 130
-13 378 -14 441 0 28 5 102 8 165 6 442 -17 513 -18 613 -7 64 6 127 19 153
31 25 10 62 22 82 26 78 15 204 85 268 149 67 68 79 99 61 154 -26 76 -107 99
-311 86 -216 -13 -204 -15 -261 48 -55 60 -95 143 -139 287 -14 47 -26 101
-26 121 0 42 -50 184 -84 237 -37 58 -131 142 -160 142 -13 0 -38 -11 -54 -25
-38 -32 -55 -32 -82 2 -32 41 -20 66 83 173 71 73 97 109 115 153 27 71 27 92
1 162 -25 67 -68 119 -118 144 -32 16 -52 22 -111 35 -8 2 -39 0 -68 -5z m115
-100 c80 -39 128 -135 100 -201 -23 -53 -145 -188 -170 -188 -25 0 -116 93
-154 158 -49 83 -14 184 79 231 54 26 90 27 145 0z m-207 -650 c0 -17 -15 -58
-34 -92 -58 -107 -111 -291 -123 -428 -6 -74 26 -247 58 -311 24 -47 25 -78 2
-78 -10 0 -47 17 -83 37 -36 20 -83 44 -105 55 -93 45 -90 42 -89 81 1 27 11
47 36 75 26 28 44 68 71 151 21 62 37 121 37 131 0 53 56 231 91 292 61 105
139 154 139 87z m351 -3 c54 -43 116 -194 154 -374 24 -117 75 -250 112 -294
34 -42 43 -87 21 -106 -7 -6 -35 -19 -63 -29 -27 -11 -76 -36 -108 -57 -69
-43 -117 -57 -117 -33 0 9 11 42 25 73 14 31 25 65 25 74 0 10 7 47 16 82 37
142 -8 375 -110 573 -47 92 -48 133 -2 119 12 -4 33 -16 47 -28z m-166 -74 c3
-15 24 -66 45 -113 21 -47 42 -103 46 -125 4 -21 13 -53 21 -71 8 -21 13 -75
13 -153 0 -105 -4 -131 -30 -212 -35 -110 -95 -188 -144 -188 -50 0 -110 79
-146 188 -26 82 -30 108 -30 209 0 124 9 163 73 328 49 128 78 184 95 188 23
5 49 -19 57 -51z m-847 -777 c25 -25 52 -45 59 -45 8 0 31 9 53 20 22 11 52
20 67 20 30 0 341 -153 374 -183 11 -10 19 -26 17 -35 -3 -15 -20 -17 -117
-20 -225 -5 -411 33 -576 120 -22 11 -58 30 -80 40 -55 28 -75 47 -75 74 0 37
42 53 143 54 l88 0 47 -45z m1838 30 c30 -12 35 -19 32 -42 -3 -29 -21 -43
-120 -98 -163 -90 -343 -131 -592 -135 -191 -4 -178 37 49 149 191 94 216 100
277 72 26 -11 52 -21 58 -21 6 0 30 20 54 45 l44 45 81 0 c49 0 96 -6 117 -15z"/>
</g>
</svg>
